#!OML:ASF \\sashay\E\Suitcase\Project 1\Capture day 1\Session 1\Male1.ASF
:FULLY-SPECIFIED
:DEGREES
1101
root -1.376 17.5742 9.40819 5.1109 7.61533 -0.49298
lowerback -1.01368 -0.585912 2.53134
upperback -2.22147 -0.758039 1.37138
thorax -1.72386 -0.407258 -0.00826326
lowerneck -15.1889 -2.9025 -5.00749
upperneck 23.2997 -1.20402 -6.00018
head 9.96425 -1.69134 -1.42374
rclavicle 5.28332e-015 -1.43125e-014
rhumerus -16.6474 -24.7899 -69.5308
rradius 18.2723
rwrist -12.0121
rhand -8.78448 17.0629
rfingers 7.12502
rthumb 17.1539 -12.1999
lclavicle 5.28332e-015 -1.43125e-014
lhumerus -39.4289 -4.27397 87.8946
lradius 31.8304
lwrist -6.61474
lhand 2.5436 45.4261
lfingers 7.12502
lthumb 28.0243 73.3535
rfemur -7.51734 -3.80568 23.8808
rtibia 16.0472
rfoot -13.0355 -13.1269
rtoes 17.9924
lfemur -8.07711 -5.03733 -15.987
ltibia 16.2881
lfoot -12.6443 3.89917
ltoes -5.06281
1102
root -1.38437 17.5845 9.4169 5.28786 7.60698 -0.0590897
lowerback -1.18732 -0.525226 2.01026
upperback -2.19607 -0.685537 1.23441
thorax -1.59349 -0.362768 0.140232
lowerneck -15.3806 -2.87401 -4.7494
upperneck 23.5143 -1.09901 -6.40124
head 10.0748 -1.67559 -1.60315
rclavicle 2.59973e-015 -1.70955e-014
rhumerus -16.6709 -23.809 -69.6798
rradius 18.5079
rwrist -12.9668
rhand -8.8047 17.3705
rfingers 7.12502
rthumb 17.1344 -11.894
lclavicle 2.59973e-015 -1.70955e-014
lhumerus -39.3404 -4.05637 87.7729
lradius 31.7059
lwrist -6.94438
lhand 2.69497 45.2172
lfingers 7.12502
lthumb 28.169 73.1208
rfemur -7.46848 -3.50903 23.4471
rtibia 15.7255
rfoot -12.8972 -13.4398
rtoes 18.0265
lfemur -8.27245 -5.14096 -16.403
ltibia 16.3025
lfoot -12.5895 3.81573
ltoes -3.87242
1103
root -1.39707 17.5919 9.42251 5.33289 7.62771 -0.146092
lowerback -1.2466 -0.464549 1.9602
upperback -2.20505 -0.605816 1.25462
thorax -1.56765 -0.321787 0.188209
lowerneck -15.3922 -2.85313 -4.63359
upperneck 23.6276 -1.0398 -6.5991
head 10.1168 -1.66438 -1.68763
rclavicle -1.4797e-014 -8.74653e-015
rhumerus -16.7968 -24.1282 -69.5981
rradius 18.5928
rwrist -12.5869
rhand -8.90843 17.608
rfingers 7.12502
rthumb 17.0346 -11.6651
lclavicle -1.4797e-014 -8.74653e-015
lhumerus -39.3508 -4.06291 87.8003
lradius 31.7105
lwrist -6.91279
lhand 2.8248 45.4256
lfingers 7.12502
lthumb 28.2931 73.3087
rfemur -7.35983 -3.11438 23.6029
rtibia 15.4042
rfoot -12.7758 -13.8459
rtoes 18.1387
lfemur -8.40623 -5.20568 -16.2278
ltibia 16.3219
lfoot -12.5273 3.72922
ltoes -2.85892
1104
root -1.39963 17.5973 9.42609 5.37776 7.71911 -0.328952
lowerback -1.25717 -0.49447 2.16844
upperback -2.28138 -0.644963 1.22147
thorax -1.6436 -0.345861 0.0383264
lowerneck -15.269 -2.77894 -4.47629
upperneck 23.6407 -0.984942 -6.60347
head 10.0954 -1.62402 -1.70573
rclavicle 2.01114e-014 -4.77083e-015
rhumerus -17.0935 -24.6094 -69.6417
rradius 18.731
rwrist -12.0332
rhand -9.00766 17.494
rfingers 7.12502
rthumb 16.9391 -11.7873
lclavicle 2.01114e-014 -4.77083e-015
lhumerus -39.4404 -3.93508 87.6027
lradius 31.6916
lwrist -6.80266
lhand 2.79599 45.528
lfingers 7.12502
lthumb 28.2656 73.4156
rfemur -7.31335 -3.11218 23.8239
rtibia 15.1604
rfoot -12.6269 -13.9341
rtoes 18.131
lfemur -8.54746 -5.35976 -15.9852
ltibia 16.3384
lfoot -12.4388 3.70838
ltoes -2.03758
1105
root -1.40144 17.6005 9.43684 5.34174 7.91265 -0.194876
lowerback -1.18573 -0.462006 2.02518
upperback -2.29564 -0.599196 1.20233
thorax -1.69612 -0.321215 0.0995221
lowerneck -15.2742 -2.86867 -4.75746
upperneck 23.7136 -1.06848 -6.4533
head 10.1271 -1.67216 -1.61902
rclavicle 1.16879e-014 -1.98785e-015
rhumerus -17.2206 -25.7828 -69.2393
rradius 18.5542
rwrist -11.0751
rhand -8.82337 17.7847
rfingers 7.12502
rthumb 17.1165 -11.4813
lclavicle 1.16879e-014 -1.98785e-015
lhumerus -39.5094 -3.88804 87.6926
lradius 31.6827
lwrist -7.14882
lhand 3.09897 45.6194
lfingers 7.12502
lthumb 28.5551 73.4588
rfemur -7.06175 -3.21695 23.6912
rtibia 14.8644
rfoot -12.5194 -14.0418
rtoes 18.1427
lfemur -8.59535 -5.36759 -16.1098
ltibia 16.4654
lfoot -12.4699 3.46127
ltoes -1.42518
1106
root -1.40039 17.605 9.44896 5.39787 8.12657 -0.185862
lowerback -1.34166 -0.528566 2.08011
upperback -2.22624 -0.695198 1.13422
thorax -1.54017 -0.369314 -0.00290126
lowerneck -15.4137 -2.85248 -4.70705
upperneck 23.6876 -1.06461 -6.39591
head 10.1434 -1.66038 -1.6086
rclavicle 3.60297e-016 -9.93923e-015
rhumerus -17.1636 -26.3182 -69.3449
rradius 18.5311
rwrist -10.4335
rhand -9.00423 17.6196
rfingers 7.12502
rthumb 16.9424 -11.6615
lclavicle 3.60297e-016 -9.93923e-015
lhumerus -39.4039 -3.87617 87.5559
lradius 31.8468
lwrist -7.0308
lhand 3.84121 45.9995
lfingers 7.12502
lthumb 29.2641 73.7175
rfemur -6.9413 -3.46862 23.6883
rtibia 14.6217
rfoot -12.4173 -14.0123
rtoes 18.0923
lfemur -8.74836 -5.48299 -16.1035
ltibia 16.6273
lfoot -12.5128 3.35323
ltoes -1.05698
1107
root -1.40664 17.6064 9.45353 5.42602 8.23243 -0.199672
lowerback -1.26985 -0.504153 2.07953
upperback -2.31234 -0.658693 1.11756
thorax -1.66854 -0.352533 -0.0182697
lowerneck -15.097 -2.92184 -4.92444
upperneck 23.5684 -1.1737 -6.25268
head 10.0425 -1.7048 -1.52697
rclavicle 1.73859e-014 -5.56597e-015
rhumerus -17.406 -26.3213 -69.2245
rradius 18.6139
rwrist -10.7234
rhand -8.89182 17.5726
rfingers 7.12502
rthumb 17.0506 -11.6992
lclavicle 1.73859e-014 -5.56597e-015
lhumerus -39.5642 -3.88481 87.5745
lradius 31.7296
lwrist -7.12643
lhand 3.45385 45.7397
lfingers 7.12502
lthumb 28.8942 73.5216
rfemur -6.88195 -3.32504 23.7433
rtibia 14.4549
rfoot -12.3443 -14.2559
rtoes 18.1488
lfemur -8.88486 -5.45785 -16.0492
ltibia 16.7383
lfoot -12.5024 3.22383
ltoes -1.00118
1108
root -1.4147 17.6065 9.4522 5.45415 8.32153 -0.376122
lowerback -1.18752 -0.48034 2.21196
upperback -2.35344 -0.62292 1.15651
thorax -1.75767 -0.337362 -0.0514062
lowerneck -14.9039 -2.97769 -5.092
upperneck 23.4392 -1.25687 -6.15446
head 9.96163 -1.73962 -1.46846
rclavicle 2.09066e-014 1.59028e-014
rhumerus -17.4998 -27.2481 -68.9694
rradius 18.2713
rwrist -9.84431
rhand -8.69924 17.8687
rfingers 7.12502
rthumb 17.2359 -11.3869
lclavicle 2.09066e-014 1.59028e-014
lhumerus -39.3903 -3.2997 87.3114
lradius 31.4621
lwrist -7.70281
lhand 3.2762 45.5753
lfingers 7.12502
lthumb 28.7244 73.3861
rfemur -6.85307 -3.11778 23.9876
rtibia 14.2688
rfoot -12.2462 -14.5321
rtoes 18.2139
lfemur -9.05929 -5.39499 -15.8081
ltibia 16.8646
lfoot -12.4997 3.1142
ltoes -1.21047
1109
root -1.41294 17.6074 9.46072 5.48101 8.53855 -0.441524
lowerback -1.22571 -0.531784 2.30271
upperback -2.29167 -0.6941 1.16715
thorax -1.6751 -0.373362 -0.0918699
lowerneck -15.1042 -2.97442 -5.09035
upperneck 23.4635 -1.22667 -6.18325
head 10.0091 -1.73237 -1.47961
rclavicle 4.81773e-014 2.38542e-015
rhumerus -17.6936 -26.3659 -69.1674
rradius 18.7523
rwrist -10.7627
rhand -8.7831 17.7273
rfingers 7.12502
rthumb 17.1552 -11.5354
lclavicle 4.81773e-014 2.38542e-015
lhumerus -39.3334 -3.49267 87.4643
lradius 31.6486
lwrist -7.33364
lhand 2.94638 45.6695
lfingers 7.12502
lthumb 28.4093 73.5333
rfemur -6.78649 -3.38893 24.0645
rtibia 14.1611
rfoot -12.2086 -14.4656
rtoes 18.1968
lfemur -9.12703 -5.41063 -15.7371
ltibia 16.9107
lfoot -12.5247 2.97642
ltoes -1.49015
1110
root -1.41535 17.6063 9.47281 5.36558 8.66018 -0.48951
lowerback -1.07897 -0.549976 2.32255
upperback -2.28645 -0.713578 1.16914
thorax -1.7527 -0.384022 -0.0992523
lowerneck -15.1857 -2.93437 -5.02662
upperneck 23.5951 -1.15416 -6.24976
head 10.0717 -1.70617 -1.50897
rclavicle 2.01891e-015 -1.27222e-014
rhumerus -17.668 -26.8079 -69.0587
rradius 18.4449
rwrist -10.2263
rhand -8.9594 18.1685
rfingers 7.12502
rthumb 16.9855 -11.1088
lclavicle 2.01891e-015 -1.27222e-014
lhumerus -39.6269 -3.18042 87.2992
lradius 31.9813
lwrist -7.38463
lhand 2.72847 45.6702
lfingers 7.12502
lthumb 28.2011 73.5686
rfemur -6.55431 -3.40372 24.1363
rtibia 14.059
rfoot -12.241 -14.5567
rtoes 18.3154
lfemur -8.9844 -5.6153 -15.6797
ltibia 16.925
lfoot -12.5372 3.10964
ltoes -1.71781
1111
root -1.40886 17.6091 9.48632 5.43715 8.96839 -0.275327
lowerback -1.06943 -0.63187 2.2454
upperback -2.34631 -0.822753 1.05883
thorax -1.82205 -0.439254 -0.167867
lowerneck -15.4059 -2.86082 -4.84428
upperneck 23.847 -1.02848 -6.38721
head 10.2032 -1.65906 -1.58187
rclavicle -9.22796e-015 -1.98785e-015
rhumerus -18.041 -26.9622 -68.9707
rradius 18.4977
rwrist -10.0258
rhand -8.78389 18.357
rfingers 7.12502
rthumb 17.1545 -10.9058
lclavicle -9.22796e-015 -1.98785e-015
lhumerus -39.6746 -3.30164 87.3549
lradius 31.991
lwrist -7.11594
lhand 2.7588 45.7158
lfingers 7.12502
lthumb 28.23 73.6094
rfemur -6.39823 -3.95663 23.8798
rtibia 13.8324
rfoot -12.1821 -14.321
rtoes 18.3419
lfemur -9.05577 -5.6611 -15.9399
ltibia 17.0068
lfoot -12.6218 2.90277
ltoes -1.86263
1112
root -1.41487 17.6107 9.48725 5.47888 8.96966 -0.301937
lowerback -0.916568 -0.576521 2.3095
upperback -2.3852 -0.743688 1.01452
thorax -1.94785 -0.402615 -0.247493
lowerneck -15.6923 -2.82848 -4.70953
upperneck 24.0542 -0.948732 -6.51255
head 10.3326 -1.63551 -1.64918
rclavicle -1.74682e-014 -5.56597e-015
rhumerus -18.2234 -27.0548 -68.8837
rradius 18.4741
rwrist -9.93085
rhand -8.75889 18.4164
rfingers 7.12502
rthumb 17.1785 -10.8442
lclavicle -1.74682e-014 -5.56597e-015
lhumerus -39.6743 -3.46637 87.3862
lradius 32.0475
lwrist -6.79906
lhand 2.74802 45.7716
lfingers 7.12502
lthumb 28.2197 73.6668
rfemur -6.41322 -3.79431 23.9456
rtibia 13.7517
rfoot -12.1679 -14.4642
rtoes 18.58
lfemur -9.08163 -5.79467 -15.878
ltibia 16.942
lfoot -12.531 3.0557
ltoes -1.95913
1113
root -1.43192 17.6066 9.50738 5.33305 9.04548 -0.858663
lowerback -0.995207 -0.549883 2.6539
upperback -2.29229 -0.709318 1.19855
thorax -1.81004 -0.387748 -0.253392
lowerneck -15.8071 -2.8021 -4.56939
upperneck 24.0627 -0.891045 -6.69616
head 10.3565 -1.6198 -1.73267
rclavicle -5.1156e-015 9.93923e-015
rhumerus -18.3756 -26.8655 -68.8766
rradius 18.5317
rwrist -9.95432
rhand -8.68272 18.3148
rfingers 7.12502
rthumb 17.2518 -10.9394
lclavicle -5.1156e-015 9.93923e-015
lhumerus -39.6149 -3.41795 87.3929
lradius 31.987
lwrist -6.70659
lhand 2.64117 45.4456
lfingers 7.12502
lthumb 28.1176 73.3577
rfemur -6.32408 -3.32198 24.6413
rtibia 13.8303
rfoot -12.3759 -14.9258
rtoes 18.8739
lfemur -8.90501 -5.5482 -15.1868
ltibia 16.7451
lfoot -12.4957 2.78016
ltoes -2.03512
1114
root -1.42118 17.6079 9.52544 5.37481 9.20363 -0.385206
lowerback -1.13972 -0.545353 2.37312
upperback -2.20549 -0.713174 1.02862
thorax -1.63787 -0.384506 -0.27287
lowerneck -15.808 -2.83886 -4.59776
upperneck 24.0124 -0.916529 -6.77494
head 10.3388 -1.64149 -1.75819
rclavicle 3.99433e-015 -1.43125e-014
rhumerus -18.5403 -27.4923 -68.6508
rradius 18.3701
rwrist -9.53056
rhand -8.92877 18.2363
rfingers 7.12502
rthumb 17.015 -11.0385
lclavicle 3.99433e-015 -1.43125e-014
lhumerus -39.3279 -3.71179 87.6015
lradius 31.6577
lwrist -6.07121
lhand 1.95285 45.6292
lfingers 7.12502
lthumb 27.4595 73.6475
rfemur -6.16527 -3.92017 24.0648
rtibia 13.771
rfoot -12.362 -14.5209
rtoes 18.6824
lfemur -8.74707 -5.80262 -15.7667
ltibia 16.6704
lfoot -12.51 2.87952
ltoes -2.14559
1115
root -1.43251 17.6109 9.53937 5.58838 9.1803 0.0955216
lowerback -1.2572 -0.557742 1.73677
upperback -2.30588 -0.732257 0.902633
thorax -1.66808 -0.385596 -0.0464152
lowerneck -15.4992 -2.79939 -4.50464
upperneck 23.9282 -0.897151 -6.84742
head 10.2471 -1.62502 -1.78814
rclavicle 1.50642e-015 8.34896e-015
rhumerus -18.882 -27.2668 -68.6465
rradius 18.4854
rwrist -9.90359
rhand -8.70048 18.2108
rfingers 7.12502
rthumb 17.2347 -11.0449
lclavicle 1.50642e-015 8.34896e-015
lhumerus -39.573 -3.57024 87.5287
lradius 31.761
lwrist -6.03065
lhand 1.40078 45.6589
lfingers 7.12502
lthumb 26.9314 73.7599
rfemur -6.26383 -3.70982 23.5941
rtibia 13.7208
rfoot -12.3693 -14.7194
rtoes 18.7009
lfemur -8.84005 -6.06027 -16.2427
ltibia 16.6231
lfoot -12.4401 3.14147
ltoes -2.28159
